<svg aria-hidden="true" style="position: absolute; width: 0; height: 0; overflow: hidden;" version="1.1" xmlns="http://www.w3.org/2000/svg" xmlns:xlink="http://www.w3.org/1999/xlink">
<defs>
<symbol id="wf-icon-t2" viewBox="0 0 32 32">
<title>t2</title>
<path d="M16 5.563v0q-2.063 0-3.875 0.781-1.781 0.781-3.141 2.141t-2.109 3.141q-0.781 1.813-0.781 3.875v0 0 0q0 2.063 0.781 3.875t2.125 3.156 3.156 2.125 3.844 0.781q2.063 0 3.875-0.781t3.156-2.125 2.125-3.156 0.781-3.875-0.781-3.844q-0.781-1.813-2.125-3.172t-3.156-2.141-3.875-0.781v0 0 0zM16 6.719v0 0q1.844 0 3.438 0.688 1.594 0.719 2.781 1.906t1.875 2.781 0.688 3.406-0.688 3.438q-0.688 1.594-1.875 2.781t-2.781 1.875-3.438 0.688q-1.813 0-3.406-0.688t-2.781-1.875-1.875-2.781q-0.688-1.625-0.688-3.438v0 0 0q0-1.813 0.688-3.406t1.875-2.781 2.781-1.875q1.594-0.719 3.406-0.719v0 0zM20.125 15.469q0 1.688-1.188 2.891t-2.906 1.203q-1.688 0-2.891-1.203t-1.203-2.891 1.203-2.891 2.891-1.203q1.719 0 2.906 1.203t1.188 2.891v0zM16.031 1.125l3.75 7.469h-7.469zM16.031 29.844l-3.719-7.531h7.438z"></path>
</symbol>
<symbol id="wf-icon-t4" viewBox="0 0 32 32">
<title>t4</title>
<path d="M16 5.563v0q-2.063 0-3.875 0.781-1.781 0.781-3.141 2.141t-2.109 3.141q-0.781 1.813-0.781 3.875v0 0 0q0 2.063 0.781 3.875t2.125 3.156 3.156 2.125 3.844 0.781q2.063 0 3.875-0.781t3.156-2.125 2.125-3.156 0.781-3.875-0.781-3.844q-0.781-1.813-2.125-3.172t-3.156-2.141-3.875-0.781v0 0 0zM16 6.719v0 0q1.844 0 3.438 0.688 1.594 0.719 2.781 1.906t1.875 2.781 0.688 3.406-0.688 3.438q-0.688 1.594-1.875 2.781t-2.781 1.875-3.438 0.688q-1.813 0-3.406-0.688t-2.781-1.875-1.875-2.781q-0.688-1.625-0.688-3.438v0 0 0q0-1.813 0.688-3.406t1.875-2.781 2.781-1.875q1.594-0.719 3.406-0.719v0 0zM20.125 15.469q0 1.688-1.188 2.891t-2.906 1.203q-1.688 0-2.891-1.203t-1.203-2.891 1.203-2.891 2.891-1.203q1.719 0 2.906 1.203t1.188 2.891v0zM16.031 1.125l3.75 7.469h-7.469zM16.031 29.844l-3.719-7.531h7.438zM1.375 15.969l7.5-3.719v7.438zM30.719 15.969l-7.531 3.719v-7.438z"></path>
</symbol>
<symbol id="wf-icon-t1" viewBox="0 0 32 32">
<title>t1</title>
<path d="M16 5.563v0q-2.063 0-3.875 0.781-1.781 0.781-3.141 2.141t-2.109 3.141q-0.781 1.813-0.781 3.875v0 0 0q0 2.063 0.781 3.875t2.125 3.156 3.156 2.125 3.844 0.781q2.063 0 3.875-0.781t3.156-2.125 2.125-3.156 0.781-3.875-0.781-3.844q-0.781-1.813-2.125-3.172t-3.156-2.141-3.875-0.781v0 0 0zM16 6.719v0 0q1.844 0 3.438 0.688 1.594 0.719 2.781 1.906t1.875 2.781 0.688 3.406-0.688 3.438q-0.688 1.594-1.875 2.781t-2.781 1.875-3.438 0.688q-1.813 0-3.406-0.688t-2.781-1.875-1.875-2.781q-0.688-1.625-0.688-3.438v0 0 0q0-1.813 0.688-3.406t1.875-2.781 2.781-1.875q1.594-0.719 3.406-0.719v0 0zM20.125 15.469q0 1.688-1.188 2.891t-2.906 1.203q-1.688 0-2.891-1.203t-1.203-2.891 1.203-2.891 2.891-1.203q1.719 0 2.906 1.203t1.188 2.891v0zM16.031 1.125l3.75 7.469h-7.469z"></path>
</symbol>
<symbol id="wf-icon-t3" viewBox="0 0 32 32">
<title>t3</title>
<path d="M16.031 5.531v0 0 0q-2.188 0-4.094 0.813-1.938 0.844-3.359 2.266t-2.266 3.359q-0.813 1.906-0.813 4.094v0q0 2.188 0.813 4.125 0.844 1.906 2.266 3.344t3.359 2.25q1.906 0.844 4.094 0.844t4.094-0.844q1.938-0.813 3.359-2.25t2.266-3.344q0.844-1.938 0.844-4.125t-0.844-4.094q-0.844-1.938-2.266-3.359t-3.359-2.266q-1.906-0.813-4.094-0.813zM16.031 6.75q1.938 0 3.625 0.75 1.688 0.719 2.953 1.984t2.016 2.953q0.719 1.688 0.719 3.625t-0.719 3.625q-0.75 1.688-2.016 2.953t-2.953 2.016q-1.688 0.719-3.625 0.719t-3.625-0.719q-1.688-0.75-2.953-2.016t-1.984-2.953q-0.75-1.688-0.75-3.625v0q0-1.938 0.75-3.625 0.719-1.688 1.984-2.953t2.953-1.984q1.688-0.75 3.625-0.75v0 0 0 0zM20.438 16.031q0 1.781-1.281 3.063t-3.063 1.281q-1.813 0-3.078-1.281t-1.266-3.063q0-1.813 1.266-3.094t3.078-1.281q1.781 0 3.063 1.281t1.281 3.094zM16.094 0.813l3.969 7.938h-7.938zM4.188 25.656l3.5-8.188 5.125 6zM29.031 24.625l-8.813-1.125 4.344-6.563z"></path>
</symbol>
<symbol id="wf-icon-fortuna" viewBox="0 0 32 32">
<title>fortuna</title>
<path d="M4.656 0.5v12.875l6.75 4.313v-12.688zM4.563 14.688v1.5l6.938 4.5 0.094-1.5zM4.563 17.406l0.094 1.406-1.688-0.75-0.094 1.406 8.625 5.438 0.094-2.906zM13.469 6.406v17.938l4.969-3.094-0.094-14.844-2.25 1.5zM13.375 26.406v3.875l2.438 1.406v-1.5l2.719-1.875-0.188-5.188zM20.438 5.094v14.75l6.844-4.313-0.094-15.125zM20.344 21.906v2.906l8.625-5.438-0.094-1.219-1.688 0.656-0.188-1.406z"></path>
</symbol>
<symbol id="wf-icon-warm" viewBox="0 0 32 32">
<title>warm</title>
<path d="M10.031 32q-1.594-3.344-1.094-5.469t1.75-3.906q1.344-1.969 1.797-3.594l0.453-1.625 0.625 1.281t0.219 3.406q0.938-1.031 1.5-2.313 0.594-1.281 0.875-2.531t0.313-2.313q0.031-1.094-0.094-1.719 2.094 1.469 3.563 3.719 1.469 2.219 2.156 4.781t0.469 5.219q-0.188 2.688-1.406 5.063 6.469-3.656 7.938-7.969 1.438-4.281 0.406-8.094t-3.25-6.563q-2.219-2.781-3.063-3.406 0.563 1.25 0.547 3.016t-1.172 2.766q-0.969-3.656-2.469-5.938-1.531-2.313-2.953-3.594t-2.484-1.75l-1.031-0.469q0.281 1.875-0.156 3.844-0.438 1.938-1.328 3.828t-2.109 3.672q-1.219 1.75-2.469 3.313-0.094-1.5-0.313-2.688t-1-2.625q-0.094 1.344-0.594 2.625-0.469 1.25-1.094 2.5t-1.219 2.5q-0.594 1.281-0.875 2.625-0.375 1.875-0.188 3.5 0.156 1.625 1.031 3.125t2.531 2.938q1.656 1.406 4.188 2.844v0z"></path>
</symbol>
<symbol id="wf-icon-cold" viewBox="0 0 32 32">
<title>cold</title>
<path d="M30 17.5l-5.406 1.594-3.5-1.969q0.063-0.25 0.094-0.547t0.031-0.578-0.031-0.578-0.094-0.547l3.5-1.969 5.406 1.594q0.125 0.063 0.234 0.078t0.234 0.016q0.5 0 0.906-0.297t0.563-0.766q0.188-0.594-0.109-1.156t-0.922-0.719l-2.688-0.813 1.438-0.781q0.563-0.313 0.719-0.922t-0.156-1.141-0.938-0.703-1.156 0.141l-1.438 0.813 0.625-2.656q0.156-0.594-0.188-1.125t-0.938-0.688q-0.625-0.125-1.172 0.203t-0.703 0.922l-1.25 5.406-3.5 1.969q-0.438-0.406-0.938-0.688t-1.063-0.469h-0.031v-3.938l4.156-3.75q0.469-0.438 0.484-1.063t-0.422-1.063q-0.438-0.469-1.063-0.484t-1.094 0.422l-2.063 1.844v-1.594q0-0.625-0.453-1.063t-1.078-0.438-1.078 0.438-0.453 1.063v1.594l-2.063-1.844q-0.469-0.438-1.094-0.422t-1.063 0.484q-0.438 0.438-0.422 1.063t0.484 1.063l4.156 3.75v3.938q-0.563 0.188-1.078 0.469t-0.953 0.688l-3.5-1.969-1.25-5.406q-0.156-0.594-0.703-0.922t-1.172-0.203q-0.594 0.156-0.938 0.688t-0.188 1.125l0.625 2.656-1.438-0.813q-0.531-0.313-1.156-0.141t-0.938 0.703-0.156 1.141 0.719 0.922l1.438 0.781-2.688 0.813q-0.625 0.156-0.922 0.719t-0.109 1.156q0.156 0.469 0.563 0.766t0.906 0.297q0.125 0 0.234-0.016t0.234-0.078l5.406-1.594 3.5 1.969q-0.063 0.25-0.094 0.547t-0.031 0.578 0.031 0.578 0.094 0.547l-3.5 1.969-5.406-1.594q-0.625-0.188-1.188 0.094t-0.75 0.875 0.109 1.156 0.922 0.719l2.688 0.813-1.438 0.781q-0.563 0.313-0.719 0.922t0.156 1.141q0.219 0.375 0.578 0.563t0.766 0.188q0.188 0 0.391-0.047t0.359-0.141l1.438-0.813-0.625 2.656q-0.156 0.594 0.188 1.125t0.938 0.688q0.094 0 0.188 0.016t0.188 0.016v0q0.5 0 0.938-0.328t0.563-0.828l1.25-5.406 3.5-1.969q0.438 0.406 0.953 0.688t1.078 0.469v3.938l-4.156 3.75q-0.469 0.438-0.484 1.063t0.422 1.063q0.438 0.469 1.063 0.484t1.094-0.422l2.063-1.844v1.594q0 0.625 0.453 1.063t1.078 0.438 1.078-0.438 0.453-1.063v-1.594l2.063 1.844q0.219 0.219 0.484 0.313t0.547 0.094q0.313 0 0.609-0.109t0.516-0.359q0.438-0.438 0.422-1.063t-0.484-1.063l-4.156-3.75v-3.938q0.594-0.188 1.094-0.469t0.938-0.688l3.5 1.969 1.25 5.406q0.125 0.5 0.563 0.828t0.938 0.328q0.094 0 0.188-0.016t0.156-0.016q0.625-0.156 0.969-0.688t0.188-1.125l-0.625-2.656 1.438 0.813q0.188 0.094 0.375 0.141t0.375 0.047q0.406 0 0.766-0.188t0.578-0.563q0.313-0.531 0.156-1.141t-0.719-0.922l-1.438-0.781 2.688-0.813q0.625-0.156 0.922-0.719t0.109-1.156-0.75-0.875-1.188-0.094v0zM16 18.688q-1.156 0-1.969-0.781t-0.813-1.906 0.813-1.906 1.969-0.781 1.969 0.781 0.813 1.906-0.813 1.906-1.969 0.781z"></path>
</symbol>
<symbol id="wf-icon-setting" viewBox="0 0 32 32">
<title>setting</title>
<path d="M14 4v-0.5q0-0.625-0.438-1.063t-1.063-0.438h-5q-0.625 0-1.063 0.438t-0.438 1.063v0.5h-6v4h6v0.5q0 0.625 0.438 1.063t1.063 0.438h5q0.625 0 1.063-0.438t0.438-1.063v-0.5h18v-4h-18zM8 8v-4h4v4h-4zM26 13.5q0-0.625-0.438-1.063t-1.063-0.438h-5q-0.625 0-1.063 0.438t-0.438 1.063v0.5h-18v4h18v0.5q0 0.625 0.438 1.063t1.063 0.438h5q0.625 0 1.063-0.438t0.438-1.063v-0.5h6v-4h-6v-0.5zM20 18v-4h4v4h-4zM14 23.5q0-0.625-0.438-1.063t-1.063-0.438h-5q-0.625 0-1.063 0.438t-0.438 1.063v0.5h-6v4h6v0.5q0 0.625 0.438 1.063t1.063 0.438h5q0.625 0 1.063-0.438t0.438-1.063v-0.5h18v-4h-18v-0.5zM8 28v-4h4v4h-4z"></path>
</symbol>
<symbol id="wf-icon-umbra" viewBox="0 0 32 32">
<title>umbra</title>
<path d="M5.25 3.938q-0.781-1.156-1.422-1.734l-0.641-0.578 1.813-1.156 1.422 1.359t1.922 1.734q-2.625 3.344-2.594 5.938 0.031 2.625 1.188 4.453t2.75 2.859q1.563 1 2.094 1.156 1.563 0.281 2.516-0.953l0.953-1.234-0.75-5 1.531-2.188 1.656 1.906-0.906 5.406 1.047 1.094t2.672 1.094q1.344-0.125 2.625-1.656 1.25-1.5 2-3.547t0.75-4.234q0.031-2.188-1.125-3.688 1.063-1.625 1.813-2.672l0.75-1.047 1.406 1.813q-0.531 0.469-1 0.969t-0.906 1.031l-0.031 0.063q1.781 3.75 0.844 6.594-0.969 2.844-2.828 4.75t-3.703 2.844l-1.875 0.969 0.188 1.188q0.156 1.219 0.016 2.906t-0.828 3.5q-0.719 1.844-2.438 3.094-1.688-1.469-2.344-3.25-0.656-1.813-0.766-3.406t0.109-2.688l0.188-1.094-2-0.688q-2.031-0.688-4.031-2.531t-3.031-5.063q-1-3.219 0.969-8.313v0zM16.156 18.875l-0.813 1.359t-0.719 3.391 0.875 3.266l0.781 1.234 0.766-1.453t0.766-2.922q0-1.438-0.828-3.156l-0.828-1.719z"></path>
</symbol>
<symbol id="wf-icon-sun" viewBox="0 0 32 32">
<title>sun</title>
<path d="M10.75 9.313l-1.813-1.813-1.5 1.5 1.813 1.813 1.5-1.5zM7.938 15.031h-3v2h3v-2zM17 5.094h-2.031v2.906h2.031v-2.906zM24.531 9l-1.531-1.5-1.781 1.813 1.406 1.406 1.906-1.719zM21.219 22.75l1.781 1.813 1.438-1.406-1.813-1.813zM24.031 17.031h3v-2h-3v2zM15.969 10q-1.219 0-2.344 0.469-1.094 0.469-1.906 1.297t-1.281 1.922q-0.5 1.094-0.5 2.344t0.5 2.344q0.469 1.094 1.281 1.906t1.906 1.313q1.125 0.469 2.344 0.469 1.25 0 2.344-0.469 1.094-0.5 1.922-1.313t1.297-1.906 0.469-2.344-0.469-2.344-1.297-1.922-1.922-1.297-2.344-0.469zM14.969 26.969h2.031v-2.906h-2.031v2.906zM7.438 23.063l1.5 1.5 1.813-1.813-1.406-1.406z"></path>
</symbol>
<symbol id="wf-icon-earth" viewBox="0 0 32 32">
<title>earth</title>
<path d="M16 0q-3.313 0-6.219 1.25-2.938 1.25-5.109 3.422t-3.422 5.109q-1.25 2.906-1.25 6.219t1.25 6.219q1.25 2.938 3.422 5.109t5.109 3.422q2.906 1.25 6.219 1.25t6.219-1.25q2.938-1.25 5.109-3.422t3.422-5.109q1.25-2.906 1.25-6.219t-1.25-6.219q-1.25-2.938-3.422-5.109t-5.109-3.422q-2.906-1.25-6.219-1.25zM16 30q-1.469 0-2.859-0.297t-2.672-0.828l7.281-8.219q0.125-0.125 0.188-0.297t0.063-0.359v-3q0-0.406-0.297-0.703t-0.703-0.297q-1.313 0-2.625-0.563-1.313-0.594-2.344-1.281t-1.656-1.281q-0.656-0.563-0.656-0.594-0.156-0.125-0.344-0.203t-0.375-0.078h-4q-0.406 0-0.703 0.297t-0.297 0.703v6q0 0.281 0.156 0.531t0.406 0.375l3.438 1.719v5.875q-1.375-0.969-2.469-2.219-1.094-1.219-1.891-2.703t-1.203-3.141q-0.438-1.656-0.438-3.438 0-1.625 0.344-3.125t1-2.875h3.656q0.188 0 0.375-0.078t0.344-0.203l4-4q0.125-0.156 0.203-0.344t0.078-0.375v-2.406q0.938-0.281 1.953-0.438t2.047-0.156q1.656 0 3.203 0.359t2.922 1.047q-0.094 0.094-0.188 0.172t-0.188 0.172q-0.844 0.844-1.297 1.953t-0.453 2.297 0.453 2.297 1.297 1.953q0.875 0.844 1.969 1.297t2.281 0.453h0.281q0.188 0.594 0.375 1.688 0.156 1.063 0.219 2.547t-0.125 3.359q-0.156 1.844-0.719 4.031 0 0.031-0.016 0.078t-0.016 0.078q-0.938 1-2.094 1.75-1.125 0.781-2.391 1.328t-2.641 0.859q-1.406 0.281-2.875 0.281z"></path>
</symbol>
<symbol id="wf-icon-alert" viewBox="0 0 32 32">
<title>alert</title>
<path d="M16 2.906l13.406 26.719h-26.813l13.406-26.719zM16 0q-0.531 0-1.016 0.344t-0.891 1.063l-13.656 27.219q-0.781 1.375-0.203 2.375t2.172 1h27.188q1.594 0 2.172-1t-0.203-2.375v0l-13.656-27.219q-0.406-0.719-0.891-1.063t-1.016-0.344v0 0zM18 26q0 0.844-0.578 1.422t-1.422 0.578-1.422-0.578-0.578-1.422 0.578-1.422 1.422-0.578 1.422 0.578 0.578 1.422zM16 22q-0.844 0-1.422-0.578t-0.578-1.422v-6q0-0.844 0.578-1.422t1.422-0.578 1.422 0.578 0.578 1.422v6q0 0.844-0.578 1.422t-1.422 0.578z"></path>
</symbol>
<symbol id="wf-icon-night" viewBox="0 0 32 32">
<title>night</title>
<path d="M15.781 27.469q-2.281 0-4.344-0.844-2.031-0.844-3.609-2.281t-2.547-3.406q-1-1.938-1.188-4.188 0-0.438 0.313-0.75t0.75-0.313q0.25 0 0.469 0.109t0.375 0.266q0 0.031 0.016 0.016l0.016-0.016q0.969 1.031 2.313 1.641t2.875 0.609q1.5 0 2.781-0.563 1.313-0.563 2.297-1.547t1.547-2.297 0.563-2.781q0-1.563-0.609-2.906t-1.672-2.313h0.016t0.016-0.031q-0.188-0.125-0.281-0.344t-0.094-0.469q0-0.438 0.313-0.75t0.75-0.344q2.25 0.219 4.219 1.188 1.938 1 3.391 2.578t2.266 3.609q0.844 2.031 0.844 4.344 0 2.438-0.938 4.594-0.906 2.125-2.5 3.719t-3.75 2.531-4.594 0.938v0z"></path>
</symbol>
<symbol id="wf-icon-ostrons" viewBox="0 0 32 32">
<title>ostrons</title>
<path d="M18.531 25.125q-0.531 0.531-1.656 0.906-1.125 0.406-2.172 0.094t-1.672-1.563-0.156-3.969q0.094-0.5 0.594-1.5t1.047-2.422 0.953-3.234q0.406-1.781 0.281-3.844 0-0.813-0.188-1.969-0.156-1.156-0.453-2.406t-0.734-2.5q-0.406-1.25-1-2.25 0.75 2.531 0.656 4.625-0.063 2.125-0.75 3.984t-1.875 3.547q-1.188 1.656-2.688 3.313-1.625 1.594-2.438 3.188-0.781 1.625-0.938 3.094t0.281 2.719q0.406 1.281 1.219 2.188-0.656 0.031-1.391-0.25t-1.078-0.563q-0.188-0.125 0.219 0.531 0.375 0.656 1.281 1.516t2.313 1.641 3.313 0.875q2.375 0.125 3.781-0.531 1.375-0.688 2.109-1.672t0.953-1.984q0.188-1 0.188-1.563v0zM21.406 2.25q-0.906 1.344-1.656 3t-1.156 3.375-0.375 3.375q0 1.656 0.625 2.938 0.375 1 1 2.406t1.141 2.969 0.797 3.094q0.25 1.563-0.063 2.813-0.656 2.531-1.938 3.313t-2.438 1.563q1.594 0.438 3.219 0.188 1.594-0.281 2.938-1.031t2.281-1.906q0.938-1.125 1.188-2.406 0.219-1.313-0.188-2.75t-1.078-2.766-1.391-2.422q-0.75-1.094-1.125-1.688-0.563-0.813-1.281-2.125t-1.156-3.094-0.406-4q0.063-2.219 1.063-4.844v0z"></path>
</symbol>
<symbol id="wf-icon-corpus" viewBox="0 0 32 32">
<title>corpus</title>
<path d="M16 31.531q-3.219 0-6.031-1.219-2.844-1.219-4.953-3.328t-3.328-4.953q-1.219-2.813-1.219-6.031t1.219-6.031q1.219-2.844 3.328-4.953t4.953-3.328q2.813-1.219 6.031-1.219t6.031 1.219q2.844 1.219 4.953 3.328t3.328 4.953q1.219 2.813 1.219 6.031t-1.219 6.031q-1.219 2.844-3.328 4.953t-4.953 3.328q-2.813 1.219-6.031 1.219v0zM2.906 16.313v0 0q0 1.375 0.281 2.656t0.813 2.469l-0.031-0.063 11.313-17.844q-2.563 0.094-4.813 1.125t-3.938 2.75-2.656 4q-0.969 2.313-0.969 4.906v0zM15.688 9.594v0 0q-1.375 0-2.594 0.531t-2.125 1.438-1.438 2.125-0.531 2.625q0 1.375 0.531 2.594t1.438 2.125 2.125 1.438 2.594 0.531h-10.875q0.875 1.375 2.031 2.5t2.547 1.922 2.984 1.234 3.313 0.438 3.313-0.438 2.984-1.234 2.547-1.891q1.156-1.125 2-2.469l0.031-0.063h-10.875q1.406 0 2.625-0.531t2.125-1.438 1.438-2.125q0.5-1.219 0.5-2.594 0-1.406-0.5-2.625-0.531-1.219-1.438-2.125t-2.125-1.438-2.625-0.531v0 0 0 0zM16.094 3.531l11.344 17.813q0.5-1.094 0.766-2.375t0.266-2.656v0 0 0q0-2.594-0.969-4.906-0.969-2.281-2.641-4t-3.922-2.75-4.844-1.125v0z"></path>
</symbol>
<symbol id="wf-icon-darvo" viewBox="0 0 32 32">
<title>darvo</title>
<path d="M16 32q-3.313 0-6.219-1.25-2.938-1.25-5.109-3.422t-3.422-5.109q-1.25-2.906-1.25-6.219t1.25-6.219q1.25-2.938 3.422-5.109t5.109-3.422q2.906-1.25 6.219-1.25t6.219 1.25q2.938 1.25 5.109 3.422t3.422 5.109q1.25 2.906 1.25 6.219t-1.25 6.219q-1.25 2.938-3.422 5.109t-5.109 3.422q-2.906 1.25-6.219 1.25zM1 15.906v0 0q0 1.938 0.469 3.719 0.469 1.813 1.328 3.406t2.078 2.906q1.219 1.344 2.719 2.344l0.031 0.031 1.938-0.469-4.344-18.781-2.875 0.656q-0.656 1.344-1 2.922t-0.344 3.234v0.031zM12.344 26.719q0.031 0.125 0.141 0.219t0.234 0.094q0.188 0 0.297-0.125t0.109-0.281v-0.094l-4.125-17.906q-0.031-0.125-0.141-0.203t-0.266-0.078-0.266 0.109-0.109 0.266v0.094zM15.906 1v0 0q-2.063 0-3.969 0.531-1.875 0.5-3.531 1.469t-3.031 2.313q-1.344 1.375-2.313 3l-0.031 0.063 10.406-2.375 0.281 1.156-1.75 0.375 4.313 18.688 1.75-0.406 0.25 1.156-9.281 2.156q1.5 0.781 3.25 1.234t3.656 0.453q1.875 0 3.625-0.438t3.313-1.266 2.875-1.984 2.344-2.594l0.031-0.031-8.344 1.844-0.25-1.156 5.969-1.375-3.125-14.031-6 1.344-0.25-1.156 5.969-1.344-0.781-3.5-5.969 1.375-0.25-1.156 8.906-2q-1.719-1.094-3.766-1.719t-4.297-0.625v0 0 0 0zM25.156 4.219l-1.375 0.313 4.188 18.719 1.031-0.25q0.875-1.531 1.344-3.344t0.469-3.75q0-1.781-0.406-3.438-0.375-1.656-1.109-3.141t-1.766-2.766q-1.063-1.281-2.344-2.313l-0.031-0.031z"></path>
</symbol>
<symbol id="wf-icon-fissure" viewBox="0 0 32 32">
<title>fissure</title>
<path d="M20.125 31.844l-1.406-0.875q-1.438-0.875-2.641-2.75t-1.359-4.875q-0.156-2.969 2.406-7.188 0.5-0.594 1.406-1.813t1.75-2.672 1.438-2.984q0.594-1.5 0.469-2.719t-1.094-2.219-2.406-1.75-3.156-1.219-3.375-0.625q1.719 0.563 3.156 1.844t2.094 2.938 0.281 3.5q-0.375 1.875-2.281 3.656-1.938 1.75-3.281 3.094-1.375 1.313-2.219 2.625t-1.188 2.781-0.219 3.5q0.156 2.625 2 4.188 1.813 1.531 3.953 2.328t3.922 1.016l1.75 0.219zM20.031 14.75l-2.469 3.438 0.813 0.656q0.813 0.625 1.563 1.953t1 3.422q0.25 2.063-0.906 4.938 2.875-2.594 3.219-5.188 0.375-2.563-0.344-4.609t-1.813-3.328zM12.375 12.719l2.063-2.344-1.453-1.422t0.484-4.391q-1.469 1.594-1.813 3.063t-0.188 2.594 0.531 1.813l0.375 0.688z"></path>
</symbol>
<symbol id="wf-icon-grineer" viewBox="0 0 32 32">
<title>grineer</title>
<path d="M6.938 31.125l12.125-14.625-12.125-15.625h18.188v30.25h-18.188zM14 13.469l-3.031 1.031v3l3.031 1.031v2.5h-8.094v-10.063h8.094v2.5z"></path>
</symbol>
<symbol id="wf-icon-infested" viewBox="0 0 32 32">
<title>infested</title>
<path d="M17.75 28.625v-1.969l2.016 0.078t3.703-1.016l-7.188-2.875 3.875-4.594 3.906 7q0.156-0.125 0.281-0.266t0.219-0.297l0.031-0.031q0.688-1 0.5-2.281-0.219-1.313-0.766-2.438t-1.141-1.906l-0.563-0.781 2.938-1 6.344 12.375h-14.156zM20.688 13.281l-3.906-4.438h-0.813l2.75 7.906h-5.844l2.75-7.906h-0.813l-3.906 4.438-0.469 1.5-2.938-2.469 8.281-9.906 8.313 9.906-2.938 2.469zM17.531 17.719l-1.719 3.531-1.75-3.5zM7.344 24.375l3.344-5.938 3.813 4.5-6.281 2.5q1.625 1.344 3.875 1.281l2.25-0.063v1.969h-14.156l6.344-12.375 2.906 1-0.531 0.719t-1.063 1.797-0.781 2.328q-0.281 1.25 0.281 2.281v0z"></path>
</symbol>
<symbol id="wf-icon-invasion" viewBox="0 0 32 32">
<title>invasion</title>
<path d="M2.781 30.5q0.625-0.281 1.688-0.563 1.031-0.25 2.141-0.406t2.078-0.25q0.969-0.063 1.438 0 0.25-0.531 0.266-0.875t0.641-0.344q0.594 0 0.609 0.531t0.297 1q2.781-0.125 5.109 0.563t3.141 0.969q0.75-0.969-0.234-2.156l-0.984-1.188 12.188-8.844 0.094-1.625q0.063-1.625 0.094-3.641t-0.063-3.828-0.438-2.156q-0.563-0.313-2.25-0.375t-3.609 0.031-3.672 0.281q-1.719 0.188-2.344 0.344-1.156 0.281-2.594 0.656t-2 1.188q-0.531 0.813 0.359 2.047t2.391 1.891q1.844 0.688 2.875-0.234t1.719-1.266q0.656-0.344 0.609 0.641t-0.328 1.172q-0.375 0.063-1.344 0.219t-2.109 0.391-2.203 0.547q-1.094 0.313-1.656 0.688-0.594 0.375-1.563 1.5-0.969 1.156-1.906 2.375t-1.625 2.156l-0.688 0.969 3.656-7h-1.125t-2.563-0.031-2.781-0.094-1.781-0.188q-0.875-0.281-1.391-1.375t-0.422-1.375q0.063-0.281 0.641-0.438l0.578-0.156-0.938-1.531-0.547 0.031t-0.984 1.188q-0.406 1.156 0.109 2.859l0.516 1.703 0.094 1.891t0.531 2.391q0.406 0.469 0.813 0.531l0.406 0.063-2.156 9.125 0.406-0.063t0.813 0.063v0zM4 13.75q-0.188-0.094-0.688-0.906-0.5-0.844-1.016-1.969t-0.922-2.344-0.406-2.063q0-1.75 2.063-2.922t3.125-1.047q0.656 0.875 1.031 2.594t0.5 3.5 0.031 3.188q-0.094 1.438-0.344 1.688-0.5 0.469-1.75 0.469t-1.625-0.188v0zM13.156 0.969q-1.375-0.344-3.141-0.125t-2.641 1.969q0.156 2.438 0.859 4.422t0.953 5.922q0.969 0.969 2.016 0.813t1.641-0.813q0.313-0.344 0.531-2.031 0.188-1.719 0.25-3.766t-0.063-3.891q-0.094-1.844-0.406-2.5v0zM13.781 1.594q1.531-1.031 3.078-0.953t2.391 0.641q0.469 1.031 0.313 2.344t-0.594 2.531q-0.469 1.219-2.047 1.375t-2.547-0.156q-0.438-0.656-0.438-2.484t-0.156-3.297v0zM21.094 1.594q0.813-0.719 2.891 0.422t2.297 1.703q0.188 0.563 0.203 1.344t-0.516 1.094q-0.5 0.313-2.844 0.516t-2.938-0.203q-0.313-0.563-0.109-2.375t1.016-2.5v0z"></path>
</symbol>
<symbol id="wf-icon-orokin" viewBox="0 0 32 32">
<title>orokin</title>
<path d="M29.938 28.938l-2.188 2.281-5.969-5.781q-1.313 0.969-2.922 1.516t-3.391 0.547q-1.531 0-2.938-0.406t-2.625-1.156l0.031 0.031-5.625 5.313-2.156-2.25 5.375-5.063q-1.281-1.375-2.016-3.188t-0.734-3.844v0q0-2.031 0.75-3.813 0.719-1.813 1.984-3.219t2.984-2.313 3.719-1.125v-5.656h3.125v5.75q1.875 0.344 3.5 1.25 1.594 0.938 2.781 2.313t1.844 3.125q0.688 1.75 0.688 3.688 0 1.781-0.578 3.406t-1.578 2.938l0.031-0.031zM15.469 25.625v0h0.031q1.5 0 2.875-0.484t2.5-1.328h-0.031l-4.781-4.469q-0.125 0.031-0.25 0.047t-0.281 0.016v0l-4.969 4.719q1.031 0.719 2.281 1.109t2.625 0.391v0 0 0 0zM9.563 23.375l4.563-4.344q-0.375-0.25-0.656-0.625t-0.406-0.813l-0.031-0.031h-6.313q0.125 1.75 0.875 3.234t1.969 2.547v0.031zM15.469 8.25q-1.75 0-3.281 0.625t-2.719 1.719-1.906 2.563q-0.75 1.469-0.844 3.156h6.313q0.25-0.813 0.906-1.328t1.531-0.516 1.531 0.516 0.875 1.328h6.344q-0.094-1.688-0.844-3.156-0.719-1.469-1.906-2.563t-2.719-1.719-3.281-0.625v0zM24.219 17.563h-6.313q-0.125 0.406-0.344 0.734t-0.5 0.578v0l4.688 4.156q1.031-1.063 1.703-2.453t0.766-2.984v-0.031z"></path>
</symbol>
<symbol id="wf-icon-sortie" viewBox="0 0 32 32">
<title>sortie</title>
<path d="M15.938 0.094l6.094 6.125-6.094 6.094-6.125-6.094zM7.656 8.281l6.125 6.125-6.125 6.125-6.125-6.125zM24.125 8.281l6.125 6.125-6.125 6.125-6.125-6.125zM9.125 31.844v-8.188l6.938-6.781 6.563 6.688v8.281l-6.563-6.688z"></path>
</symbol>
<symbol id="wf-icon-voidtrader" viewBox="0 0 32 32">
<title>voidtrader</title>
<path d="M28.906 27.281v-5.406l-9.813 9.813-2.656-3 9.813-10.844h3.063l-10.625 11.438 0.594 0.813 10.438-11.438h0.406v8.625h-1.219zM23.594 13.219h1.844l0.813 1.031 1.031-1.031h1.625l-2.656 2.813zM26.25 11.438l-0.813 1h-1.844l2.656-2.813 2.656 2.813h-1.625zM25.031 16.438h-2.063l-6.938-7.406-6.969 7.406h-2.031l5.5-6.219-2.656-2.594h2.469l1.438 1.406 2.25-2.219 2.031 2.219 1.438-1.406h2.438l-2.438 2.594zM18.281 6.813h-1.031l-1.219-1.406-1.25 1.406h-1l2.25-2.406zM16.031 3l-3.688 3.813h-2.469l5.938-6.438 6.125 6.625h-2.438zM2.938 13.219h1.844l0.813 1.031 1.031-1.031h1.625l-2.656 2.813zM5.594 11.438l-0.813 1h-1.844l2.656-2.813 2.656 2.813h-1.625zM5.781 17.844l9.844 10.844-2.688 3-9.813-9.813v5.406h-1.219v-8.625h0.406l10.438 11.438 0.625-0.813-10.656-11.438h3.063zM25.031 17.844l-9 10.031-9-10.031h2.031l6.969 7.844 7.156-7.844h1.844zM16.031 23.875l-5.531-5.813h1.844l0.719 1.703t2.969 1.703 2.969-1.703l0.719-1.703h1.813zM10.5 16.438l5.531-5.813 5.5 5.813h-1.813l-0.719-1.703t-2.969-1.703-2.969 1.703l-0.719 1.703h-1.844zM16.031 19.469q-1.313-0.031-1.578-1.125l-0.266-1.094h3.688l-0.281 1.109t-1.563 1.109v0zM13.375 17.031l0.375-1.422t2.281-1.359q1.875 0.031 2.266 1.406l0.391 1.375h-0.813l-0.172-1t-1.672-1-1.672 1l-0.172 1h-0.813zM17.875 31.688h-0.844l-1-1.188-1.25 1.188h-0.813l2.063-2z"></path>
</symbol>
<symbol id="wf-icon-koneksi" viewBox="0 0 32 32">
<title>koneksi</title>
<path d="M11.844 26.625q-0.563 0.156-1.375 0.844t-2.844 2.438q-0.281-0.531-1.156-2.781t-1.438-5.516-0.406-7.234q0.188-3.938 2-7.906-0.313-0.375-2.047-1.156t-2.578-1.469q5.094 0.875 5.625-0.094t1.406-1.906q0.5 0.563 1 1.688l0.5 1.125 13.438 0.094 0.766-0.266t1.453-0.734q0.75 0.531 1.563 2.813 0.844 2.281 1.25 5.484t0.156 6.922q-0.25 3.75-1.656 7.25 0.656 0.063 1.578 0.625l0.922 0.563-3.906 0.313-1.313 2.094-0.25-0.891t-0.75-1.422q-0.25-0.25-2.063-0.438-1.781-0.219-3.891-0.344t-3.922-0.156-2.063 0.063v0zM15.344 8.25q-2.281-0.344-3.906 1.531-1.594 1.875-2.453 4.359t-0.922 4.797 0.75 2.844q0.906 0.219 2.375 0.5 1.469 0.25 3 0.516t2.875 0.453q1.375 0.188 2.094 0.25 1.469 0.125 3.578-0.656t3.859-4.469q1.281-5.281 0.984-7l-0.297-1.719-1.344 0.063t-3.234-0.031-3.922-0.406q-2.063-0.313-3.438-1.031v0z"></path>
</symbol>
<symbol id="wf-icon-madurai" viewBox="0 0 32 32">
<title>madurai</title>
<path d="M6.375 8.438l-1.641-0.734t-2.578-1.047q4.031-1.344 6.031-2.516l2-1.172-0.156 1.875q-0.125 1.875-0.203 4.203t0.016 4.359q0.094 2.063 0.594 2.406 1.625-0.156 3.844-1.625 2.188-1.5 4.266-3.25t3.641-3.281 1.906-1.781q0.469-0.281 1.438-0.031t1.922 0.719 1.703 1q0.719 0.5 0.688 0.75-2.719 0.375-6.25 2.156-3.563 1.75-7.125 4.516t-6.75 6.391q-3.188 3.594-5.125 7.656 0.813-3.875 1.188-7.563 0.375-3.719 0.5-6.609t0.125-4.672l-0.031-1.75z"></path>
</symbol>
<symbol id="wf-icon-naramon" viewBox="0 0 32 32">
<title>naramon</title>
<path d="M5.719 17.781l-1.344 2.688-0.391-1.5t-0.859-2.125q-0.469-0.5-1.297-1.688t-0.578-1.125h25.438l1.031-2.5q0.25 1.031 0.516 1.938t0.609 1.781l-0.063-0.188q0.594 0.906 1.047 1.344t0.297 1.375h-24.406z"></path>
</symbol>
<symbol id="wf-icon-penjaga" viewBox="0 0 32 32">
<title>penjaga</title>
<path d="M5.438 3.906l7.156-2.781-0.219 25.156 3.625 1.688-7.469 3 0.094-25.063zM20.594 13.688l5.75-2.438 0.219 5.531-5.875 2.25z"></path>
</symbol>
<symbol id="wf-icon-unairu" viewBox="0 0 32 32">
<title>unairu</title>
<path d="M5.875 16.094q-0.844 0.313-1.609 2.078t-0.109 11.359q-1.406-2.844-2.094-5.375-0.656-2.563-0.625-4.875t0.781-4.469 2.156-4.219q1.344-2 4.063-3.563 2.688-1.531 5.438-2.438t4.875-1.125q2.156-0.188 2.375 0.469-7.469 3.156-7.844 5.188t0.438 2.656q1.75 0.875 4.688 1.656 2.969 0.75 5.797 1.313t4.922 0.906l2.063 0.313-2.344-0.344q-2.375-0.344-6.047-0.563t-8.172-0.094q-4.5 0.156-8.75 1.125v0z"></path>
</symbol>
<symbol id="wf-icon-vazarin" viewBox="0 0 32 32">
<title>vazarin</title>
<path d="M1.375 1.438q3.969 2.281 7.813 5.656 3.844 3.406 7.016 7.313t5.453 8.094q2.25 4.219 3.125 8.125 0.531 0.063 1.938-3.125t2.406-7.766 0.906-9.672q-0.063-5.094-2.5-8.844-1-0.031-4.656 0-3.625 0.031-7.891 0.078t-8.172 0.078q-3.906 0.063-5.438 0.063v0zM15.313 7.875h2.188q1.563-0.031 3.281-0.047t3.188-0.016q1.469-0.031 1.875 0 0.969 1.531 1 3.594t-0.359 3.922-0.984 3.172q-0.563 1.281-0.781 1.281-0.344-1.625-1.25-3.313-0.906-1.719-2.188-3.313t-2.813-2.969-3.156-2.313v0z"></path>
</symbol>
<symbol id="wf-icon-zenurik" viewBox="0 0 32 32">
<title>zenurik</title>
<path d="M5.469 12.969q-0.75-0.75-2.094-2.313t-2.5-3q5.156-0.781 9-0.469 3.813 0.313 6.406 1.063t4 1.625q1.406 0.844 1.688 1.125-2.906-0.344-5.406-0.469-2.5-0.094-4.547 0.109t-3.703 0.766q-1.625 0.563-2.844 1.563v0zM14.5 22.969q-0.781-0.75-2.125-2.313t-2.5-3q5.156-0.781 9-0.469 3.813 0.313 6.406 1.078t4 1.609 1.688 1.156q-2.906-0.375-5.406-0.5-2.469-0.094-4.531 0.109t-3.719 0.766q-1.625 0.563-2.813 1.563v0z"></path>
</symbol>
<symbol id="wf-icon-aura" viewBox="0 0 32 32">
<title>aura</title>
<path d="M12.8 20l3.1-3.3 3.3 3.1c1-0.9 1.7-2.2 1.7-3.7 0-2.7-2.2-5-5-5s-5 2.2-5 5c0.1 1.5 0.8 2.9 1.9 3.9zM16 28.5c-2.6 0-5-0.8-7-2.2l-1 1.1c2.3 1.6 5 2.5 8 2.5 3.2 0 6.2-1.1 8.6-2.9l-1.1-1c-2.1 1.6-4.7 2.5-7.5 2.5zM29.8 13.6c-1.2-6.6-6.9-11.6-13.8-11.6-7 0-12.9 5.2-13.8 12-0.1 0.7-1.6 1.9-1.6 1.9s1.5 1.3 1.6 1.9c0.4 3.4 2.1 6.4 4.6 8.6l1-1.1c-2.6-2.3-4.2-5.6-4.2-9.3-0.1-6.9 5.5-12.5 12.4-12.5s12.5 5.6 12.5 12.5c0 3.5-1.5 6.7-3.8 9l1.1 1c2.1-2.1 3.6-4.9 4.1-7.9 0.1-0.7 1.6-2 1.6-2s-1.6-1.7-1.7-2.5zM15.9 7.6c-4.6 0-8.4 3.8-8.4 8.4 0 2.6 1.2 4.9 3 6.4l0.9-0.9c-1.5-1.3-2.5-3.2-2.5-5.4-0.1-4 3.1-7.1 7-7.1s7.1 3.2 7.1 7.1c0 2.1-0.9 3.9-2.3 5.2l0.9 0.8c1.6-1.5 2.6-3.7 2.6-6.1 0.1-4.6-3.7-8.4-8.3-8.4zM26.9 15.9c0-6-4.9-10.9-11-10.9-6 0-10.9 4.9-10.9 10.9 0 3.3 1.5 6.3 3.8 8.3l0.9-0.9c-2.1-1.8-3.4-4.4-3.4-7.4 0-5.4 4.3-9.7 9.7-9.7s9.7 4.3 9.7 9.7c0 2.8-1.2 5.3-3 7.1l0.9 0.9c2-2 3.3-4.8 3.3-8zM10 25.2c1.7 1.1 3.7 1.7 5.9 1.7 2.4 0 4.6-0.8 6.4-2.1l-6.3-6.3-1.9 2.1-1.5 1.6-0.8 0.9-0.1 0.1-0.8 0.9-0.9 1.1z"></path>
</symbol>
<symbol id="wf-icon-exilus" viewBox="0 0 32 32">
<title>exilus</title>
<path d="M5.45 15.95c0-3.97 4.13-8.26 4.13-8.26s0.32-0.64 0.16-1.11c-0.16-0.48-1.11-0.48-1.75-0.48s-1.11-0.64-2.22-0.79c-1.11-0.16-3.020 1.75-2.86 2.38 0.16 0.64 1.75 1.43 1.59 2.22s-1.43 1.91-1.91 2.38-1.59 0.96-1.9 1.6c-0.32 0.64-0.32 2.7 0 3.34s1.75 0.64 2.38 0.95 1.11 1.43 1.11 2.070c0 0.64-1.11 1.75-1.11 2.86s1.91 3.020 2.38 3.020 1.75-1.59 2.38-1.59c0.64 0 3.020 2.54 3.18 2.070 0.16-0.48 0-2.86-0.79-3.97s-4.77-2.71-4.77-6.69zM31.32 13.89c-0.32-0.64-1.43-1.11-1.91-1.59s-1.75-1.59-1.91-2.38c-0.16-0.79 1.43-1.59 1.59-2.22 0.16-0.64-1.75-2.54-2.86-2.38s-1.59 0.79-2.22 0.79c-0.64 0-1.59 0-1.75 0.48s0.16 1.11 0.16 1.11 4.13 4.29 4.13 8.26-3.97 5.56-4.77 6.67-0.95 3.5-0.79 3.97c0.16 0.48 2.54-2.070 3.18-2.070s1.91 1.59 2.38 1.59 2.38-1.91 2.38-3.020-1.11-2.22-1.11-2.86c0-0.64 0.48-1.75 1.11-2.070s2.070-0.32 2.38-0.95c0.33-0.63 0.33-2.69 0.010-3.33zM15.97 7.7v0c-0.010 0-0.010 0-0.010 0s-0.010 0-0.010 0v0c-1.13 0.060-4.11 3.66-4.42 4.6-0.32 0.95-0.95 1.59 0 2.070s2.070-0.16 2.38-0.48 1.27-2.070 1.75-2.070c0.080 0 0.19-0.010 0.3-0.030 0.12 0.020 0.22 0.030 0.3 0.030 0.48 0 1.43 1.75 1.75 2.070s1.43 0.95 2.38 0.48c0.95-0.48 0.32-1.11 0-2.070-0.32-0.94-3.29-4.55-4.42-4.6zM15.97 15v0c-0.010 0-0.010 0-0.010 0s-0.010 0-0.010 0v0c-1.13 0.060-4.11 3.66-4.42 4.6-0.32 0.95-0.95 1.59 0 2.070s2.070-0.16 2.38-0.48 1.27-2.070 1.75-2.070c0.080 0 0.19-0.010 0.3-0.030 0.12 0.020 0.22 0.030 0.3 0.030 0.48 0 1.43 1.75 1.75 2.070s1.43 0.95 2.38 0.48c0.95-0.48 0.32-1.11 0-2.070-0.32-0.94-3.29-4.54-4.42-4.6z"></path>
</symbol>
</defs>
</svg>
